<?xml version="1.0" encoding="utf-8"?>
<!-- Generator: Adobe Illustrator 27.0.0, SVG Export Plug-In . SVG Version: 6.00 Build 0)  -->
<svg version="1.1" id="Layer_1" xmlns="http://www.w3.org/2000/svg" xmlns:xlink="http://www.w3.org/1999/xlink" x="0px" y="0px"
	 viewBox="0 0 528 468" style="enable-background:new 0 0 528 468;" xml:space="preserve">
<style type="text/css">
	.st0{fill:#020202;}
</style>
<path class="st0" d="M527.9,420.2c0,15-0.1,29.9,0.1,44.9c0,2.4-0.5,3.3-2.9,2.8c-0.7-0.1-1.5,0-2.2,0c-174.3,0-348.6,0-522.9,0
	c0-15.9,0-31.8,0-47.7c14,0.1,28,0,42,0.4c5,0.1,6.4-1,6.4-6.2c-0.2-102-0.1-204-0.1-306.1c0-13.4,5.4-20.9,18.1-25.4
	c75.4-27.1,150.8-54.2,226.1-81.2C305.1-2.9,312,1.9,312,15.4c0,35.9,0.1,71.7-0.1,107.6c0,4.4,1.1,6.4,5.5,7.8
	c47.5,15.4,94.9,31.1,142.3,46.6c14.7,4.8,20,12.1,20,27.5c0,59.7,0,119.4,0,179.1c0,10.9,0,21.8,0,32.7c0,2-0.5,4,2.9,3.9
	C497.7,420.3,512.8,420.3,527.9,420.2z M264,62.4c-2.1,0.7-3.3,1.1-4.5,1.5c-52.6,18.9-105.1,37.8-157.8,56.5
	c-4.3,1.5-5.5,3.3-5.5,7.7c0.1,95.5,0.1,191.1,0,286.6c0,4.5,0.9,5.8,5.7,5.8c52-0.2,104.1-0.2,156.1,0c4.9,0,6.1-1.1,6-6
	c-0.2-115.3-0.1-230.6-0.1-346C264,66.8,264,65,264,62.4z M431.6,319.1c0-32.2-0.1-64.3,0.1-96.5c0-3.6-1.1-5.1-4.5-6.2
	c-36.7-11.9-73.4-23.9-110-36c-4-1.3-5.3-1.4-5.3,3.5c0.2,77.3,0.1,154.5,0,231.8c0,3.9,0.9,4.9,4.9,4.9c36.7-0.2,73.4-0.2,110.1,0
	c4.1,0,4.8-1.2,4.8-4.9C431.5,383.4,431.6,351.3,431.6,319.1z"/>
</svg>
