<?xml version="1.0" encoding="UTF-8"?>
<svg id="Layer_1" data-name="Layer 1" xmlns="http://www.w3.org/2000/svg" viewBox="0 0 825.33 727.99">
  <path d="M13.81,586.7c-1.34-3.81-3.53-7.14-5.9-10.37-1.87-4.5-4.55-8.53-7.2-12.58-1.36-2.09-.76-2.8,1.67-2.74,3.47,.08,6.95-.1,10.42-.17,4.99,.46,9.98,.46,14.96,0h15.01c4.99,.46,9.98,.46,14.96,0h15.01c4.99,.46,9.98,.46,14.96,0h15.01c4.99,.46,9.98,.46,14.96,0h15.01c4.99,.46,9.98,.46,14.96,0h15.01c4.99,.46,9.98,.46,14.96,0h15.01c4.99,.46,9.98,.46,14.96,0h15.01c4.99,.46,9.98,.46,14.96,0h15.01c4.99,.46,9.98,.46,14.96,0h15.01c4.99,.46,9.98,.46,14.96,0h15.01c4.99,.46,9.98,.46,14.96,0h15.01c4.99,.46,9.98,.46,14.96,0h15.01c4.99,.46,9.98,.46,14.96,0h15.01c4.99,.46,9.98,.46,14.96,0h15.01c4.99,.46,9.98,.46,14.96,0h15.01c4.99,.46,9.98,.46,14.96,0h15.01c4.99,.46,9.98,.46,14.96,0,4.71-.78,5.72,3.21,7.71,5.95,2.11,3.62,4.22,7.25,6.33,10.87,.56,.96,1.13,1.92,1.69,2.88,1.73,3.97,3.96,7.66,6.42,11.21,.14,1.01,.6,1.82,1.46,2.39l-.06-.05c2.09,4.46,4.5,8.73,7.4,12.71,0,.83,.28,1.5,1.05,1.9,6.25,10.86,12.5,21.73,18.75,32.59,3.8,7.31,7.77,14.53,12.36,21.38,.3,1.2,.72,2.33,1.81,3.07,0,.83,.28,1.5,1.05,1.9,3.08,5.51,6.16,11.03,9.24,16.54,3.9,6.51,7.79,13.01,11.69,19.52,0,.82,.29,1.48,1.02,1.91,1.55,2.72,3.1,5.44,4.65,8.16,1.75,3.82,3.76,7.49,6.34,10.82,.3,.48,.6,.97,.91,1.45,.13,.56,.26,1.12,.39,1.68-2.29,.09-4.57,.26-6.86,.26-149.18,.01-298.37,.01-447.55,0-5.16,0-10.31-.14-15.47-.22-1.01-.04-2.03-.08-3.04-.12-11.26-1.44-21.73-5.33-31.93-10.11-1.69-1.72-3.76-2.87-5.91-3.9-3.05-2.41-6.09-4.83-9.14-7.24-7.05-6.72-12.5-14.68-17.85-22.74-5.51-11.41-12.37-22.05-18.75-32.97-1.85-3.95-3.9-7.77-6.56-11.25-.3-.57-.6-1.14-.9-1.72-2.73-4.68-5.45-9.37-8.18-14.05-2.22-4.52-4.67-8.9-7.69-12.94,.02-.84-.2-1.57-1-2-3-5.84-6.13-11.61-9.98-16.95-.42-2.02-1.44-3.69-2.97-5.07Z"/>
  <path d="M823.28,579.73c-.21,.95-.42,1.91-.62,2.86-.08,.34-.17,.68-.25,1.02-2.68,7.67-5.84,15.13-9.42,22.42-7.15,10.87-13.49,22.21-19.69,33.64-5.61,8.55-10.53,17.5-15.26,26.56-.98,.92-1.66,2.02-1.92,3.35-2.88,3.81-5.07,8.03-7.22,12.27-5.9,10.26-11.81,20.53-17.71,30.79-1.42,2.38-2.83,4.77-4.25,7.15-1.43,2.28-2.87,4.57-4.56,7.27-5.89-10.02-11.58-19.71-17.27-29.4-1.73-3.49-3.38-7.03-5.95-10.03-.79-2.46-1.99-4.69-3.75-6.61-1.98-4.36-4.14-8.62-7.14-12.39-2.18-4.95-4.9-9.59-8.06-13.97-.08-.34-.16-.68-.24-1.02-6.16-10.58-12.33-21.16-18.49-31.74-4.98-9.64-10.35-19.04-16.18-28.19-2.42-4.8-4.82-9.61-8.07-13.92-.14-.38-.27-.77-.41-1.15-3.52-5.97-7.04-11.94-10.56-17.91-.44-2.02-1.6-3.65-2.85-5.23-1.61-2.82-2.61-6-4.98-8.36-4.88-9.73-10.41-19.08-16.16-28.32-5.66-10.52-11.48-20.93-17.93-30.99-1.44-3.71-3.56-7.04-5.9-10.24-.48-2.08-1.69-3.74-2.98-5.37-5.44-9.99-10.81-20.03-17-29.59-5.69-10.53-11.55-20.97-18.01-31.07-1.86-4.49-4.41-8.59-7.15-12.58-.58-.94-1.15-1.89-1.73-2.83-1.22-3.36-3.1-6.34-5.21-9.2-3.44-6.17-6.87-12.35-10.31-18.52-3.16-5.34-6.33-10.69-9.49-16.03-.77-1.98-1.54-3.96-3.22-5.4-1.05-3-2.75-5.63-4.64-8.15-5.07-9.86-10.57-19.47-16.51-28.83-2.84-5.64-5.77-11.22-9.49-16.34-3.37-6.77-7.03-13.37-11.33-19.61-.1-1.65-1.18-2.78-2.09-4-1.42-2.64-2.54-5.47-4.6-7.74-4.91-9.68-10.26-19.11-16.2-28.2-5.75-11.22-12.28-21.99-18.8-32.77-1.4-3.28-3.16-6.35-5.3-9.21-.89-1.58-1.78-3.16-2.67-4.74-5.08-9.61-10.3-19.13-16.28-28.22-6.23-11.67-12.83-23.13-19.85-34.35-4.45-9.19-9.71-17.92-15.14-26.56-2.26-4.7-4.76-9.25-7.87-13.46l.08-.33-.25-.24c-3.23-5.59-6.45-11.18-9.68-16.77-.99-2.66-2.55-4.99-4.22-7.26-1.16-2.42-2.06-4.97-4-6.94-3.53-6.35-7.01-12.72-10.6-19.03-6.42-11.28-12.9-22.52-19.6-34.21h6.12c40.11,0,80.23,.03,120.34-.02,13.96-.02,27.93-.41,41.58,3.33,4.96,2.12,9.92,4.23,14.88,6.35,.64,.33,1.28,.65,1.92,.98,4.35,3.03,8.7,6.05,13.05,9.08,2.02,1.89,4.04,3.79,6.05,5.68,3.31,4.1,6.63,8.2,9.94,12.3-.04,.68-.04,1.34,.74,1.66,6.04,10.49,12.09,20.98,18.13,31.47,4.74,8.98,9.71,17.82,15.17,26.38,6.58,11.58,13.17,23.16,19.75,34.73,1.19,2.54,2.37,5.07,4.28,7.18,.8,2.47,1.99,4.71,3.76,6.62,2.48,4.47,4.97,8.94,7.45,13.41,1.21,2.01,1.88,4.36,3.7,6,1.08,3.3,2.99,6.14,4.97,8.95,6.27,10.92,12.53,21.84,18.8,32.77,1.42,3.27,3.01,6.44,5.3,9.21,.89,1.67,1.77,3.34,2.66,5.01,.8,1.33,1.61,2.66,2.41,4,.38,1.17,.75,2.34,1.86,3.07,0,.82,.29,1.48,1.02,1.91,.3,.48,.6,.97,.91,1.45l-.04,.37,.31,.2c.39,.81,.79,1.62,1.18,2.43l.13,.17c2.69,4.88,5.09,9.92,8.5,14.38,6.02,12.04,13,23.54,19.98,35.04,3.06,6.16,6.21,12.27,10.18,17.91,.3,1.2,.72,2.33,1.81,3.07,0,.83,.28,1.5,1.05,1.9,2.89,5.92,6.02,11.7,9.91,17.04,3.67,8.02,8.21,15.55,13.08,22.89,1.05,3.2,2.8,6,4.79,8.67,5.07,9.63,10.28,19.18,16.19,28.32,5.99,11,11.91,22.04,18.73,32.56,1.15,3.46,3.16,6.45,5.25,9.39,.65,1.69,1.21,3.43,2.74,4.59,1.51,4.15,4.06,7.71,6.39,11.41,.39,.81,.79,1.62,1.18,2.43,0,0,.13,.17,.13,.17,2.75,4.84,5.1,9.91,8.55,14.34,5.66,11.25,12.12,22.04,18.65,32.8,4.92,9.7,10.3,19.14,16.26,28.24,5.13,9.44,8.67,19.45,10.87,29.96,.12,1.85,.24,3.71,.36,5.56,.11,8.18-.2,16.32-2.03,24.33Z"/>
  <path d="M84.1,414.02c5.66-8.89,10.98-17.98,15.75-27.38,1.65-2.02,2.98-4.22,3.87-6.68,2.13-2.78,3.86-5.8,5.3-8.99,6.19-10.65,12.39-21.3,18.58-31.96,5.33-9.34,10.67-18.68,16-28.02,2.12-2.73,3.85-5.69,5.1-8.92,1.55-2.22,3.26-4.34,4.04-7,3.74-5.42,7-11.11,9.9-17.02,.8-.41,1.05-1.13,1.09-1.96,2.75-3.75,5.02-7.78,6.94-12.01,5.81-9.17,11.29-18.52,16.25-28.18,6.12-10.43,12.25-20.87,18.37-31.3h-.01c.78-1.49,1.57-2.97,2.35-4.45,.37-.65,.74-1.3,1.11-1.95,2.32-3.13,4.31-6.46,5.85-10.05,.79-.43,1.08-1.11,1.03-1.98,.9-.81,1.65-1.73,1.83-2.98,1.64-2.19,3.18-4.44,4.09-7.05,.7-1.3,1.41-2.59,2.11-3.89,2.91-3.68,5.15-7.75,6.99-12.04,6.56-9.99,12.27-20.49,17.96-30.98,1.83-2.15,3.09-4.63,4.22-7.18,.76-1.16,1.53-2.33,2.64-4.03,5.86,9.87,11.43,19.24,16.99,28.62,5.01,9.37,10.09,18.69,16.01,27.53,2.35,5.43,5.42,10.43,8.87,15.21,2.39,5.64,5.57,10.83,9.1,15.83,1.24,3.25,2.8,6.32,5.09,8.97,.86,2.42,2.02,4.66,3.79,6.56,2,4.78,4.84,9.08,7.6,13.42,1.05,2.07,1.77,4.35,3.55,5.99,.98,2.55,2.1,5.01,4.09,6.97,.38,.8,.77,1.6,1.15,2.41h0c6.23,10.65,12.46,21.31,18.69,31.97,1.52,3.82,3.72,7.25,6.1,10.57,.67,1.73,1.31,3.49,2.76,4.77,4.97,9.65,10.41,19.03,16.22,28.19,5.91,10.25,11.83,20.51,17.74,30.76,4.47,7.73,8.94,15.47,13.4,23.2,.19,1.25,.88,2.18,1.85,2.94v.02c9.06,16.88,18.73,33.39,28.69,49.75,1.17,4.06,4.75,6.97,5.41,11.27-3.37,.02-6.74,.04-10.11,.06H72.76c-1.38-.03-2.75-.07-4.13-.1,2.21-7.7,7.52-13.76,11.05-20.77,1.39-2.75,2.94-5.42,4.42-8.13Z"/>
</svg>