<?xml version="1.0" encoding="utf-8"?>
<!-- Generator: Adobe Illustrator 27.0.0, SVG Export Plug-In . SVG Version: 6.00 Build 0)  -->
<svg version="1.1" id="Layer_1" xmlns="http://www.w3.org/2000/svg" xmlns:xlink="http://www.w3.org/1999/xlink" x="0px" y="0px"
	 viewBox="0 0 528 468" style="enable-background:new 0 0 528 468;" xml:space="preserve">
<path d="M413,420c-25,0-50-15-72-42c-1,0-1,0-2,0c-104,0-189-85-189-189S235,0,339,0s189,85,189,189c0,51-20,99-56,134
	c4,31-1,58-15,76C446,412,430,420,413,420L413,420L413,420z M352,335c7,0,13,3,17,9c18,25,34,34,44,34c5,0,8-2,11-5c8-10,10-30,5-52
	c-2-8,1-16,7-21c32-28,50-68,50-110c0-81-66-147-147-147s-147,66-147,147s66,147,147,147c3,0,7,0,10,0C350,335,352,335,352,335
	L352,335z M96,468c-5,0-11-1-15-3c-24-8-43-37-37-84C16,353,0,314,0,274c0-64,38-120,97-143c11-4,23,1,27,12c4,11-1,23-12,27
	c-42,17-70,58-70,104c0,32,14,63,38,84c1,1,2,2,3,3c4,5,6,11,4,18c-6,31,3,45,8,47c6,2,19-6,30-29c4-8,12-12,20-12c21,1,43-3,62-14
	c10-6,23-2,29,8c6,10,2,23-8,29c-22,12-47,19-72,19C137,457,114,468,96,468L96,468z"/>
</svg>
