<?xml version="1.0" encoding="utf-8"?>
<!-- Generator: Adobe Illustrator 27.0.0, SVG Export Plug-In . SVG Version: 6.00 Build 0)  -->
<svg version="1.1" id="Layer_1" xmlns="http://www.w3.org/2000/svg" xmlns:xlink="http://www.w3.org/1999/xlink" x="0px" y="0px"
	 viewBox="0 0 520 383" style="enable-background:new 0 0 520 383;" xml:space="preserve">
<path d="M449,0H71C32,0,0,32,0,71v241c0,39,32,71,71,71h378c39,0,71-32,71-71V71C520,32,489,0,449,0L449,0z M71,42h378
	c16,0,29,13,29,29v10L277,221c-9,6-26,6-35,0L41,81V71C42,55,55,42,71,42z M449,342H71c-16,0-29-13-29-29V132l177,123
	c12,8,27,12,42,12c15,0,30-4,42-12l176-123v180C479,329,465,342,449,342z"/>
</svg>
