<?xml version="1.0" encoding="utf-8"?>
<!-- Generator: Adobe Illustrator 27.0.0, SVG Export Plug-In . SVG Version: 6.00 Build 0)  -->
<svg version="1.1" id="Layer_1" xmlns="http://www.w3.org/2000/svg" xmlns:xlink="http://www.w3.org/1999/xlink" x="0px" y="0px"
	 viewBox="0 0 263.1 490" style="enable-background:new 0 0 263.1 490;" xml:space="preserve">
<style type="text/css">
	.st0{fill:#FFFFFF;}
</style>
<path d="M258.1,257l-50-79l28-153c1-6,0-12-4-17s-10-8-16-8h-170c-6,0-12,3-16,8s-6,11-4,17l29,153l-52,81c-4,6-4,15-1,21
	c4,7,11,11,18,11h90v178c0,12,9,21,21,21s21-9,21-21V291h90c12,0,21-9,21-21C263.1,265,260.1,260,258.1,257z M59.1,249l35-55
	c3-4,4-10,3-15l-26-137h121l-26,136c-1,5,0,11,3,15l35,55L59.1,249z"/>
<path class="st0" d="M94.1,194c3-4,4-10,3-15l-26-137h121l-26,136c-1,5,0,11,3,15l35,55l-145,1L94.1,194z"/>
</svg>
