<?xml version="1.0" encoding="UTF-8"?>
<svg id="Layer_1" data-name="Layer 1" xmlns="http://www.w3.org/2000/svg" viewBox="0 0 528 468">
  <defs>
    <style>
      .cls-1 {
        fill: #030303;
      }
    </style>
  </defs>
  <path class="cls-1" d="M263.85,467.99c-63.56,0-127.11-.02-190.67,0-22.35,0-41.3-7.9-56.08-25.26C6.57,430.37,1.17,415.78,.11,399.48c-.12-1.8-.1-3.6-.1-5.4C0,287.39,0,180.71,0,74.03,0,51.4,7.94,32.35,24.71,17.47,38.21,5.49,54.13,.02,71.94,.02c60.85,.01,121.71,0,182.56,0,67.32,0,134.63-.06,201.95,.05,24.4,.04,44.05,10.16,58.47,30.37,8.15,11.43,12.71,24.4,12.89,38.54,.33,25.46,.15,50.94,.15,76.4,0,83.13,.1,166.27-.05,249.4-.05,27.95-12.19,49.26-35.59,63.67-11.57,7.13-24.42,9.55-37.8,9.55-63.56-.02-127.11,0-190.67-.01Zm.45-323.98c-74.95,0-149.91,.02-224.86-.08-3.37,0-4.31,.86-4.3,4.36,.1,81.93,.08,163.87,.06,245.8,0,4,.34,7.93,1.46,11.75,4.83,16.46,18.25,26.13,36.24,26.13,127.47,0,254.94,0,382.41,0,3.65,0,7.3-.19,10.83-1.18,16.62-4.66,26.68-18.39,26.68-36.51,.02-81.93-.02-163.87,.1-245.8,0-3.68-.9-4.56-4.46-4.56-74.72,.11-149.44,.08-224.16,.08Zm-.37-36.04c74.95,0,149.89-.02,224.84,.06,3.13,0,4.23-.68,4.15-4.13-.25-10.2-.05-20.42-.11-30.63-.13-21.7-15.28-37.28-36.45-37.29-128.28-.03-256.56-.03-384.83,0-20.92,0-36.21,15.71-36.31,37.08-.04,10.09-.01,20.18-.01,30.27q0,4.62,4.58,4.62c74.71,0,149.42,0,224.13,0Z"/>
  <path class="cls-1" d="M370.53,201.34c5.42-.15,9.59,1.62,12.96,5.06,22.45,22.89,44.91,45.76,67.21,68.8,7.28,7.52,7.28,18,.02,25.49-22.3,23.03-44.72,45.93-67.22,68.75-7.12,7.23-18.13,6.9-24.97-.29-6.81-7.16-6.67-18.06,.57-25.52,17.13-17.65,34.32-35.23,51.61-52.72,2.29-2.32,2.36-3.53,.02-5.89-17.29-17.48-34.48-35.08-51.6-52.73-9.86-10.17-6.08-26,7.09-30.34,1.61-.53,3.23-.53,4.29-.62Z"/>
  <path class="cls-1" d="M157.01,201.29c7.35,.27,12.74,3.79,15.88,10.56,3.13,6.76,1.65,14.61-3.78,20.25-9.39,9.75-18.91,19.38-28.37,29.07-7.88,8.07-15.68,16.23-23.69,24.17-2.19,2.17-1.91,3.33,.11,5.38,17.02,17.24,33.9,34.63,50.9,51.9,5.14,5.22,7.69,11.26,5.78,18.56-3.57,13.61-19.28,18.03-29.36,8.21-7.9-7.7-15.48-15.73-23.2-23.62-14.11-14.43-28.21-28.86-42.32-43.28-9.29-9.49-9.34-19.47-.12-28.91,21.49-21.99,43-43.96,64.47-65.97,3.81-3.9,8.14-6.43,13.72-6.31Z"/>
  <path class="cls-1" d="M232.33,386.94c-12.62,0-20.88-12.78-16.07-25.17,11.52-29.73,23.16-59.41,34.76-89.11,9.21-23.58,18.46-47.14,27.61-70.74,2.9-7.47,7.94-12.27,15.86-12.87,6.97-.53,12.58,2.53,16.24,8.74,3.04,5.15,3.34,10.58,1.13,16.22-14.06,35.91-28.07,71.83-42.1,107.75-6.78,17.35-13.56,34.69-20.32,52.05-3.3,8.46-9.35,13.13-17.11,13.13Z"/>
</svg>